<?xml version='1.0' encoding='utf-8'?>
<svg xmlns="http://www.w3.org/2000/svg" version="1.1" viewBox="0 0 1000 1000" id="svg2"> <metadata id="metadata20"> </metadata> <defs id="defs18"/> <g id="g4138" transform="translate(14.640611,-5.0979801)"> <path d="m 213.88003,793.72647 c -70.17897,-70.17897 -70.17632,-184.00109 0,-254.17741 51.92815,-51.92815 127.73986,-65.37738 192.10079,-40.4562 l 323.22084,-323.22083 20.72149,3.13401 62.62224,68.14188 -12.7439,32.22731 -35.15672,5.16291 2.24198,38.49373 -33.48937,31.11774 -42.72862,29.05706 -12.14163,39.90299 -41.58725,11.17522 -11.62202,35.75651 -29.18543,41.88028 -26.9858,14.29096 -17.31248,32.09999 -43.31757,43.31758 c 24.90159,64.33817 11.40047,140.10117 -40.52768,192.02933 -70.17897,70.17896 -183.92961,70.2478 -254.10858,0.0689 z m 21.41421,-21.41421 c 30.06422,30.06423 66.92081,45.05107 95.00219,41.43295 L 193.78983,677.2386 c -3.61866,28.08138 11.44019,65.00944 41.50441,95.07366 z" id="path8" style="color:#000000;fill:#05ab76;fill-opacity:1"/> <path d="m 210.80663,781.72222 c -70.17898,-70.17897 -70.17633,-184.00109 0,-254.17742 51.92814,-51.92815 127.73985,-65.37737 192.1008,-40.4562 l 323.22082,-323.22083 20.72149,3.13401 55.76785,68.8089 -5.8895,31.5587 -35.15672,5.1629 2.24198,38.49374 -33.48934,31.11778 -42.72862,29.05705 -12.14163,39.90299 -41.58725,11.17521 -11.62203,35.75651 -29.18543,41.88029 -26.98581,14.29095 -17.31246,32.10001 -43.31757,43.31757 c 24.90157,64.33817 11.40048,140.10119 -40.52767,192.02933 -70.17897,70.17897 -183.92962,70.24779 -254.10859,0.0688 z m 21.41421,-21.41421 c 30.06421,30.06422 66.92082,45.05106 95.0022,41.43293 L 190.71643,665.23434 c -3.6184,28.08165 11.44018,65.00945 41.50441,95.07367 z" id="path10" style="color:#000000;fill:#00d692;fill-opacity:1"/> <rect transform="matrix(0.70710678,0.70710678,0.70710678,-0.70710678,0,0)" x="695.0484" y="-57.919186" width="11.146268" height="453.65939" id="rect12" style="color:#000000;fill:#05ab76;fill-opacity:1"/> <rect transform="matrix(0.70710678,0.70710678,0.70710678,-0.70710678,0,0)" x="646.422" y="-57.919186" width="20.063356" height="453.65939" id="rect14" style="color:#000000;fill:#05ab76;fill-opacity:1"/> </g> </svg>