<?xml version="1.0" encoding="UTF-8"?>
<svg width="500mm" height="500mm" version="1.1" viewBox="0 0 1771.6535 1771.6535" xmlns="http://www.w3.org/2000/svg">
 <g transform="translate(0 719.29)">
  <rect y="-719.29" width="1771.7" height="1771.7" fill-opacity="0"/>
 </g>
 <path d="m198.97 513.48c-8.6281 0-15.574 6.9461-15.574 15.574v878.08c0 8.6282 6.9461 15.574 15.574 15.574h1373.7c8.6281 0 15.574-6.946 15.574-15.574v-878.08c0-8.6282-6.9461-15.574-15.574-15.574zm556.76 118.55h260.19c4.5859 0 8.2773 3.6934 8.2773 8.2793v27.29c0 4.5859-3.6914 8.2773-8.2773 8.2773h-260.19c-4.586 0-8.2793-3.6914-8.2793-8.2773v-27.29c0-4.5859 3.6934-8.2793 8.2793-8.2793z" fill="#088e7c"/>
 <path d="m198.97 505.48c-8.6281 0-15.574 6.9461-15.574 15.574v878.08c0 8.6282 6.9461 15.574 15.574 15.574h1373.7c8.6281 0 15.574-6.946 15.574-15.574v-878.08c0-8.6282-6.9461-15.574-15.574-15.574h-1373.7zm556.76 122.71h260.19c4.5859 0 8.2773 3.6934 8.2773 8.2793v28.572c0 4.5859-3.6914 8.2773-8.2773 8.2773h-260.19c-4.586 0-8.2793-3.6914-8.2793-8.2773v-28.572c0-4.5859 3.6934-8.2793 8.2793-8.2793z" fill="#0bcdb3"/>
 <path d="m198.97 505.48c-8.6281 0-15.574 6.9461-15.574 15.574v878.08c0 6.0688 3.4433 11.293 8.4844 13.865h693.94v-739.68h-130.09c-4.586 0-8.2793-3.6914-8.2793-8.2773v-28.572c0-4.5859 3.6934-8.2793 8.2793-8.2793h130.09v-122.71h-686.85z" fill="#0bd4b9"/>
 <rect x="340.63" y="755.22" width="387.96" height="485.38" ry="13.696" fill="#fff"/>
 <path d="m827.4 350.95c-3.5506 0-6.4102 2.8596-6.4102 6.4102v296.58c0 3.5506 2.8596 6.4102 6.4102 6.4102h116.84c3.5506 0 6.4102-2.8596 6.4102-6.4102v-296.58c0-3.5506-2.8596-6.4102-6.4102-6.4102zm58.422 24.775c11.179 6e-5 20.242 9.0628 20.242 20.242-5e-5 11.179-9.0628 20.242-20.242 20.242-11.179-5e-5 -20.242-9.0628-20.242-20.242 6e-5 -11.179 9.0628-20.242 20.242-20.242z" fill="#e11429"/>
 <path d="m827.4 348.95c-3.5506 0-6.4102 2.8596-6.4102 6.4102v294.45c0 3.5506 2.8596 6.4102 6.4102 6.4102h116.84c3.5506 0 6.4102-2.8596 6.4102-6.4102v-294.45c0-3.5506-2.8596-6.4102-6.4102-6.4102h-116.84zm58.422 24.775a20.242 20.242 0 0 1 20.242 20.242 20.242 20.242 0 0 1 -20.242 20.242 20.242 20.242 0 0 1 -20.242 -20.242 20.242 20.242 0 0 1 20.242 -20.242z" fill="#ef4c5d"/>
 <rect x="1006.5" y="820.27" width="437.11" height="42.905" ry="0" fill="#888"/>
 <rect x="1006.5" y="906.08" width="311.82" height="42.905" ry="0" fill="#888"/>
 <rect x="1006.5" y="991.89" width="439.89" height="42.905" ry="0" fill="#888"/>
 <rect x="1006.5" y="1072.7" width="225.51" height="42.905" ry="0" fill="#888"/>
 <g transform="matrix(.99737 0 0 .99737 285.27 179.91)" fill="#ddd">
  <circle transform="matrix(.97419 0 0 .97419 11.137 526.15)" cx="245.19" cy="183.9" r="77.402" color="#000000"/>
  <path transform="translate(0 552.36)" d="m193.56 251.31c-39.284 0-70.906 31.622-70.906 70.906v135.82h254.69v-135.82c0-39.284-31.622-70.906-70.906-70.906z" color="#000000"/>
 </g>
</svg>
